<svg width="512" height="132" xmlns="http://www.w3.org/2000/svg" xml:space="preserve" version="1.0">

 <g>
	 <g id="svg_1">
   <g id="Layer_1_00000080892043533363313400000015114788787541884557_">
    <g id="svg_2">
     <polygon id="svg_3" fill="#8A92B2" points="40,0 0,66.30001831054688 40,48.20001220703125 " class="st0"/>
		<polygon id="svg_4" fill="#62688F" points="40,48.20001220703125 0,66.30001831054688 40,89.89999389648438 " class="st1"/>
		<polygon id="svg_5" fill="#62688F" points="79.9000015258789,66.30001831054688 40,0 40,48.20001220703125 " class="st1"/>
		<polygon id="svg_6" fill="#454A75" points="40,89.89999389648438 79.9000015258789,66.30001831054688 40,48.20001220703125 " class="st2"/>
		<polygon id="svg_7" fill="#8A92B2" points="0,73.89999389648438 40,130.20001220703125 40,97.5 " class="st0"/>
		<polygon id="svg_8" fill="#62688F" points="40,97.5 40,130.20001220703125 79.9000015258789,73.89999389648438 " class="st1"/>
    </g>
   </g>
		 <g id="Layer_2_00000016769403500387535360000016149413021273536932_">
    <path id="svg_9" fill="#8A92B2" d="m143.4,76.10001c0,0.9 -0.8,1.6 -1.6,1.6l-31.6,0c0.8,7.8 6.7,14.9 14.9,14.9c5.6,0 9.8,-2.2 13,-6.7c0.5,-0.6 1.1,-1 2,-0.6c0.5,0.2 0.8,0.6 0.9,1.1c0.1,0.5 -0.1,0.8 -0.2,1.1c-3.2,5.6 -9.5,8.3 -15.7,8.3c-10.6,0 -18.2,-9.5 -18.2,-19.7s7.6,-19.7 18.2,-19.7c10.6,0 18.3,9.5 18.3,19.7m-3.4,-1.6c-0.7,-7.8 -6.7,-14.9 -14.9,-14.9s-14.2,7.1 -14.9,14.9l29.8,0zm41.8,-17.3c0.9,0 1.6,0.8 1.6,1.6c0,0.9 -0.7,1.6 -1.6,1.6l-8.5,0l0,33.3c0,0.8 -0.7,1.6 -1.6,1.6c-0.9,0 -1.6,-0.8 -1.6,-1.6l0,-33.3l-8.1,0c-0.9,0 -1.6,-0.7 -1.6,-1.6c0,-0.8 0.7,-1.6 1.6,-1.6l8.1,0l0,-12.2c0,-0.8 0.5,-1.5 1.3,-1.6c1.1,-0.2 1.9,0.6 1.9,1.6l0,12.2l8.5,0l0,0zm51.7,16.1l0,20.2c0,0.9 -0.8,1.6 -1.6,1.6c-0.9,0 -1.6,-0.7 -1.6,-1.6l0,-20.2c0,-6.8 -3.8,-13.6 -11.4,-13.6c-9.7,0 -13.9,8.5 -13.4,17.2c0,0.2 0.1,1.2 0.1,1.4l0,15.1c0,0.8 -0.5,1.5 -1.3,1.6c-1.1,0.2 -1.9,-0.6 -1.9,-1.6l0,-66.2c0,-0.8 0.7,-1.6 1.6,-1.6c0.9,0 1.6,0.8 1.6,1.6l0,37.5c2.7,-4.9 7.6,-8.1 13.2,-8.1c9.4,-0.1 14.7,8.1 14.7,16.7m56.7,2.8c0,0.9 -0.8,1.6 -1.6,1.6l-31.6,0c0.8,7.8 6.7,14.9 14.9,14.9c5.6,0 9.8,-2.2 13,-6.7c0.5,-0.6 1.1,-1 2,-0.6c0.5,0.2 0.8,0.6 0.9,1.1c0.1,0.5 -0.1,0.8 -0.2,1.1c-3.2,5.6 -9.5,8.3 -15.7,8.3c-10.6,0 -18.2,-9.5 -18.2,-19.7s7.6,-19.7 18.2,-19.7c10.6,0 18.3,9.5 18.3,19.7m-3.4,-1.6c-0.7,-7.8 -6.7,-14.9 -14.9,-14.9s-14.2,7.1 -14.9,14.9l29.8,0zm42.2,-15.8c0,1 -0.6,1.6 -1.5,1.7c-9.3,1.4 -13.5,8.9 -13.5,17.8l0,15.1c0,0.8 -0.5,1.5 -1.3,1.6c-1.1,0.2 -1.9,-0.6 -1.9,-1.6l0,-34.5c0,-0.8 0.5,-1.5 1.3,-1.6c1.1,-0.2 1.9,0.6 1.9,1.6l0,7c2.6,-4.4 7.8,-8.6 13.2,-8.6c0.9,0 1.8,0.6 1.8,1.5m52,17.4c0,0.9 -0.8,1.6 -1.6,1.6l-31.6,0c0.8,7.8 6.7,14.9 14.9,14.9c5.6,0 9.8,-2.2 13,-6.7c0.5,-0.6 1.1,-1 2,-0.6c0.5,0.2 0.8,0.6 0.9,1.1c0.1,0.5 -0.1,0.8 -0.2,1.1c-3.2,5.6 -9.5,8.3 -15.7,8.3c-10.6,0 -18.2,-9.5 -18.2,-19.7s7.6,-19.7 18.2,-19.7c10.5,0 18.2,9.5 18.3,19.7m-3.4,-1.6c-0.7,-7.8 -6.7,-14.9 -14.9,-14.9s-14.2,7.1 -14.9,14.9l29.8,0zm54.4,-15.4l0,34.6c0,0.9 -0.8,1.6 -1.6,1.6c-0.9,0 -1.6,-0.7 -1.6,-1.6l0,-6.6c-2.6,5.2 -7.3,8.9 -13.1,8.9c-9.4,0 -14.6,-8.1 -14.6,-16.7l0,-20.3c0,-0.8 0.7,-1.6 1.6,-1.6c0.9,0 1.6,0.8 1.6,1.6l0,20.3c0,6.8 3.8,13.6 11.4,13.6c10.6,0 13.1,-10 13.1,-20.9l0,-12.9c0,-0.9 0.9,-1.8 2,-1.5c0.7,0.1 1.2,0.8 1.2,1.5m80,14.1l0,20.3c0,0.9 -0.8,1.6 -1.6,1.6c-0.9,0 -1.6,-0.7 -1.6,-1.6l0,-20.3c0,-6.8 -3.8,-13.5 -11.4,-13.5c-9.5,0 -13.1,10.2 -13.1,18.1l0,15.6c0,0.9 -0.8,1.6 -1.6,1.6c-0.9,0 -1.6,-0.7 -1.6,-1.6l0,-20.3c0,-6.8 -3.8,-13.5 -11.4,-13.5c-9.6,0 -13.6,7.6 -13.2,17.7c0,0.2 0.1,0.7 0,0.8l0,15.2c0,0.8 -0.5,1.5 -1.3,1.6c-1.1,0.2 -1.9,-0.6 -1.9,-1.6l0,-34.6c0,-0.8 0.5,-1.5 1.3,-1.6c1.1,-0.2 1.9,0.6 1.9,1.6l0,5.8c2.7,-4.9 7.6,-8 13.2,-8c6.4,0 11.4,4.1 13.5,10.1c2.6,-5.9 7.7,-10.1 14.3,-10.1c9.2,0 14.5,8.1 14.5,16.7" class="st0"/>
   </g>
  </g>
 </g>
</svg>