<svg width="300" height="300" version="1.0" id="Layer_1" xmlns="http://www.w3.org/2000/svg" xmlns:xlink="http://www.w3.org/1999/xlink" x="0px" y="0px"
	 viewBox="0 0 512 512" style="enable-background:new 0 0 512 512;" xml:space="preserve">
<style type="text/css">
	.st0{fill:#FEFDFB;}
	.st1{fill:#FEB600;}
	.st2{fill:#252020;}
</style>
<g>
	<path class="st0" d="M255.8,512c-69.7,0-139.3,0-209,0C20.9,512,0,491.1,0,465.3c0-139.5,0-279,0-418.5C0,20.9,20.9,0,46.7,0
		c139.5,0,279,0,418.5,0C491.1,0,512,20.9,512,46.7c0,139.5,0,279,0,418.5c0,25.8-20.9,46.7-46.7,46.7
		C395.4,512,325.6,512,255.8,512z M503.1,255.8c0-68,0-136,0-204c0-4.9-0.4-9.7-1.9-14.5c-5.1-16.2-21-28.5-40.1-28.4
		C324.6,9,188.1,8.9,51.6,8.9c-1.2,0-2.3,0-3.5,0c-9.7,0.5-17.9,4-24.8,10.1c-9,8.1-13.9,19.7-13.9,31.8
		c0.1,136.3,0.1,272.7,0.1,409c0,1.2,0,2.3,0,3.5c0,3.7,0.7,7.2,1.8,10.7c5.2,16.5,21.2,28.6,40.3,28.6
		c136.4-0.2,272.8-0.1,409.3-0.1c1.1,0,2.2,0,3.2,0c10-0.4,18.7-4.1,26-10.9c9-8.5,13.1-19,13.1-31.4
		C503,392.1,503.1,323.9,503.1,255.8z"/>
	<path class="st1" d="M503.1,255.8c0,68.2,0,136.3,0,204.5c0,12.4-4.1,22.9-13.1,31.4c-7.3,6.8-16,10.5-26,10.9c-1.1,0-2.2,0-3.2,0
		c-136.4,0-272.8-0.1-409.3,0.1c-19.1,0-35.1-12.1-40.3-28.6c-1.1-3.5-1.9-7-1.8-10.7c0-1.2,0-2.3,0-3.5c0-136.1,0-272.2-0.1-408.3
		c0-10.5,2.7-19.8,9.4-27.9C26.4,14.7,36.1,9.7,48.1,9c1.2-0.1,2.3,0,3.5,0c136.5,0,273,0.1,409.5-0.1c19.1,0,35,12.2,40.1,28.4
		c1.5,4.7,1.9,9.5,1.9,14.5C503.1,119.8,503.1,187.8,503.1,255.8z M102.4,322.7c0,4.7,0,8.8,0,12.9c0,16.1,0,32.1,0,48.2
		c0,2.9-1.1,4.3-3.3,4.3c-2.3,0.1-3.5-1.5-3.6-4.4c0-0.7,0-1.5,0-2.2c0-23.8,0-47.6-0.1-71.4c0-1.5,0-3-0.3-4.5
		c-1.7-8.2-9.1-13.7-17.1-12.9c-8.3,0.9-14.5,7.6-14.5,16.3c0,44.2-0.2,88.4,0.1,132.6c0.1,24,19.4,42.8,43.5,42.9
		c14.1,0,28.3,0,42.4,0c1.8,0,2.4-0.3,2.4-2.3c-0.1-38.2,0-76.4,0-114.6c0-7.6-3.3-13.4-9.4-17.7c-3.8-2.6-7.7-5.3-11.5-7.9
		C121.6,335.7,112.3,329.4,102.4,322.7z M385.1,229.2c0.8,2.1,1.5,3.9,2.1,5.7c0.5,1.4,1.1,2,2.9,1.6c5.1-1.4,10.3-2.5,15.5-3.7
		c1.4-0.3,2.9-0.8,4.3-1.2c-0.4-1.3-0.8-2.6-1.3-3.9c-0.1-0.2-0.1-0.5-0.1-0.7c-1.4-5.7-1.5-11.5-1.5-17.3c0-13.4,0.2-26.8-0.1-40.2
		c-0.4-16-8.6-22.4-22.6-21.7c-7.6,0.4-14.9,2.4-21.9,5.3c-14.9,6.1-22.2,16.6-22.4,31.8c0,1.9,0.2,2.6,2.4,2.1
		c5.8-1.5,11.6-2.9,17.5-4.1c2.1-0.4,2.9-1.2,3-3.5c0.3-8.9,5.8-14.2,14.1-13.8c3.2,0.1,5.1,1.8,5.7,4.9c1.2,6.1-0.4,9.9-5.5,13.2
		c-4.8,3.1-10.3,5.1-15.5,7.4c-3.8,1.7-7.5,3.5-11.1,5.7c-14.1,8.4-16.3,23.1-13.1,35.3c2.5,9.3,9.3,14.4,19,14.1
		C368.7,245.5,378.4,240.2,385.1,229.2z M204.2,234.8c0,10,0.4,18.4,3.6,26.4c3.7,9.1,10.4,13.9,20.3,14.2
		c8.9,0.3,17.3-1.9,25.3-5.6c14.3-6.8,21.3-18.2,21.4-34c0-2.5-0.8-2.4-2.6-1.9c-5.3,1.4-10.6,2.8-16,3.8c-2.8,0.5-3.9,1.5-4,4.6
		c-0.2,7.5-4,11.8-11.2,13.1c-5.6,1.1-8.9-0.9-10.7-6.2c-1.5-4.3-1.6-8.8-1.6-13.3c0-1.1,0.5-1.4,1.5-1.6c3.5-0.8,7-1.6,10.4-2.4
		c11.2-2.6,22.5-5.3,33.7-7.9c1-0.2,1.9-0.4,1.9-1.8c-0.1-7.2,0.4-14.5-0.9-21.6c-2.1-11.2-8.6-18.4-18.8-20.4
		c-5.5-1.1-10.9-0.4-16.3,0.8c-17.1,3.8-28.4,13.8-33.1,30.8C204.8,219.8,204.1,228,204.2,234.8z M95.3,290.8c0-1.2,0-2,0-2.8
		c0-12.7,0-25.3,0-38c0-4.8,0.9-9.3,3.6-13.3c2.2-3.4,5.3-5.7,9.4-6.3c3.8-0.6,6.5,1,7.7,4.7c0.7,2.1,0.8,4.2,0.8,6.4
		c0,19,0,38,0,56.9c0,1.9,0.3,2.4,2.3,1.9c6.6-1.7,13.2-3.2,19.9-4.6c1.9-0.4,2.4-1.2,2.4-3.2c-0.1-20.1-0.1-40.1,0-60.2
		c0-2.8-0.1-5.5-0.5-8.2c-1.5-10.7-8.1-16.2-18.4-15.2c-11.4,1.1-20.5,6.4-26.9,16c-0.4,0.6-0.6,1.5-1.6,1.8c0-2.4-0.1-4.6,0-6.9
		c0.1-1.7-0.1-2.4-2.2-1.8c-6.2,1.6-12.4,3.1-18.7,4.4c-2,0.4-2.4,1.2-2.4,3.2c0.1,19.5,0.1,39,0.1,58.4c0,0.8-0.2,1.7,0.2,2.4
		C82.1,284.1,86.1,284.8,95.3,290.8z M442.5,178.8c0-3.7-0.1-7.5,0-11.2c0.2-4.1,0.9-8.1,2.5-11.9c2-4.8,5.4-7.9,10.6-8.9
		c4.9-1,7.7,0.8,8.9,5.5c0.7,2.7,0.6,5.4,0.6,8.2c0,1.4,0.1,2.1,1.9,1.6c6.6-1.7,13.2-3.2,19.9-4.7c1.3-0.3,1.8-0.8,1.7-2.2
		c-0.1-3-0.2-6-0.6-9c-1.7-10.9-8.7-17.1-19.7-17.4c-5-0.2-10,0.5-14.8,1.6c-18.8,4.3-31.1,15.2-34.6,34.6
		c-1.9,10.7-1.6,21.4-0.4,32.1c0.7,6,1.8,11.8,4.7,17.2c3.3,6.1,8.4,9.9,15.4,10.5c13.7,1.1,26.3-2.4,37-11.1
		c10.7-8.7,13.4-20.9,13.3-34.1c0-1.7-1.1-1-1.9-0.9c-6.4,1.5-12.8,3.1-19.2,4.5c-2,0.4-2.7,1.2-2.6,3.3c0.1,4.2,0,8.5-2,12.4
		c-2.2,4.2-7.4,6.9-12.2,6.2c-4-0.5-6.2-3.1-7.4-8.5C442.1,190.7,442.6,184.7,442.5,178.8z M31,249.7c0,2,0,4,0,6
		c0,20.9,0,41.8,0,62.7c0,2,0.4,2.5,2.5,1.9c7-1.8,14-3.5,21.1-5c2-0.4,2.5-1.2,2.4-3.1c-0.1-28.4,0-56.8,0-85.2
		c0-17.3,0-34.6,0-51.9c0-2-0.4-2.3-2.3-1.8c-7.1,1.8-14.2,3.4-21.3,5c-1.7,0.4-2.4,1-2.4,2.9C31.1,204,31,226.8,31,249.7z
		 M189.4,283.7c-3.9-5.7-4.9-12.2-5-18.7c-0.2-16.2-0.1-32.4-0.2-48.7c0-1.5,0.5-2,1.8-2.3c4.5-1,9-2.2,13.6-3.2
		c1.3-0.3,2-0.7,2-2.2c-0.1-4.8-0.1-9.7,0-14.5c0-1.4-0.2-1.9-1.8-1.4c-5.1,1.3-10.2,2.4-15.2,3.6c-0.5-0.9-0.3-1.7-0.3-2.5
		c0-5-0.1-10,0-15c0-1.8-0.4-2.1-2.1-1.7c-6.8,1.7-13.7,3.3-20.6,4.9c-1.3,0.3-1.9,0.9-1.9,2.3c0.1,4.9-0.1,9.8,0.1,14.7
		c0.1,2.4-0.5,3.6-3,3.9c-2.5,0.3-4.8,1.2-7.3,1.7c-1.1,0.2-1.7,0.6-1.7,1.9c0.1,5,0.1,10,0,15c0,1.7,0.8,1.5,1.8,1.3
		c2.3-0.6,4.7-1.2,7-1.7c3-0.7,3-0.7,3,2.4c0.1,16.3-0.3,32.6,0.3,48.9c0.2,5.3,0.9,10.6,2.7,15.7c0.3,0.9,0.5,2,2,1.6
		C172.8,287.6,181,285.7,189.4,283.7z M308.2,177.5c0-2.7-0.1-5.3,0-8c0.1-1.6-0.1-2.4-2.2-1.8c-6.2,1.6-12.4,3.1-18.7,4.4
		c-1.9,0.4-2.3,1.2-2.3,3c0.1,27.9,0.1,55.8,0,83.6c0,1.9,0.4,2.4,2.3,1.9c6.4-1.6,12.8-3.1,19.2-4.4c2.2-0.5,3-1.3,3-3.7
		c-0.1-16.5-0.2-33,0.2-49.4c0.2-9.1,4.8-15.7,13.7-18.8c2.9-1,5.9-1.8,9-1.9c1.5,0,2-0.6,2-2.1c-0.1-6.2-0.1-12.5,0-18.7
		c0-1.7-0.6-2.2-2.2-2.1c-5.9,0.3-10.8,2.9-15.2,6.7C313.5,169.3,310.8,173.3,308.2,177.5z M57,367c0-3.5-0.1-7,0-10.5
		c0.1-2-0.5-2.3-2.3-1.8c-9.8,2.4-19.5,4.7-29.3,6.9c-1.8,0.4-2.7,1.3-3.3,2.9c-2,5.2-1.5,10.1,2.1,14.5c3.7,4.6,8.7,6,14.3,4.8
		c5.6-1.1,11.2-2.6,16.7-3.8c1.3-0.3,1.9-0.8,1.9-2.3C56.9,374.2,57,370.6,57,367z M57,386.9c-0.5,0.1-0.8,0.1-1.1,0.1
		c-10.4,2.4-20.8,4.9-31.3,7.3c-1.4,0.3-1.9,1.2-2.4,2.3c-2.1,5.2-1.8,10.1,1.6,14.6c3.6,4.7,8.5,6.3,14.2,5.2
		c5.9-1.1,11.6-2.6,17.5-4c0.8-0.2,1.5-0.4,1.5-1.5C56.9,402.9,57,395,57,386.9z M57,322c-0.4,0-0.7,0-0.9,0
		c-10.5,2.5-21,5-31.5,7.4c-1.4,0.3-1.9,1.2-2.4,2.3c-2.1,5.1-1.8,9.9,1.5,14.4c3.5,4.7,8.4,6.5,14.1,5.5c5.9-1.1,11.8-2.7,17.7-4
		c0.8-0.2,1.5-0.3,1.5-1.5C56.9,338,57,330,57,322z M488.6,103.9c0-8.4-6.7-15.3-15.1-15.3c-8.3,0-15,6.7-15.1,15.1
		c-0.1,8.3,6.6,15.2,14.9,15.3C481.8,119,488.6,112.3,488.6,103.9z"/>
	<path class="st2" d="M102.4,322.7c9.8,6.7,19.2,13,28.5,19.4c3.9,2.6,7.7,5.2,11.5,7.9c6.2,4.3,9.4,10.1,9.4,17.7
		c0,38.2,0,76.4,0,114.6c0,1.9-0.6,2.3-2.4,2.3c-14.1-0.1-28.3,0-42.4,0c-24.1-0.1-43.4-18.8-43.5-42.9
		c-0.2-44.2-0.1-88.4-0.1-132.6c0-8.6,6.2-15.4,14.5-16.3c8-0.8,15.4,4.7,17.1,12.9c0.3,1.4,0.3,3,0.3,4.5c0,23.8,0,47.6,0.1,71.4
		c0,0.7,0,1.5,0,2.2c0.1,2.9,1.3,4.5,3.6,4.4c2.2-0.1,3.3-1.5,3.3-4.3c0-16.1,0-32.1,0-48.2C102.4,331.5,102.4,327.4,102.4,322.7z"
		/>
	<path class="st2" d="M385.1,229.2c-6.7,11-16.4,16.3-28.7,16.7c-9.6,0.3-16.5-4.8-19-14.1c-3.2-12.2-1-26.9,13.1-35.3
		c3.6-2.1,7.3-4,11.1-5.7c5.2-2.3,10.7-4.2,15.5-7.4c5.2-3.4,6.8-7.2,5.5-13.2c-0.6-3.1-2.6-4.7-5.7-4.9
		c-8.4-0.3-13.9,4.9-14.1,13.8c-0.1,2.3-0.9,3.1-3,3.5c-5.8,1.3-11.7,2.6-17.5,4.1c-2.2,0.6-2.4-0.2-2.4-2.1
		c0.2-15.3,7.5-25.7,22.4-31.8c7-2.9,14.3-4.9,21.9-5.3c14-0.7,22.2,5.7,22.6,21.7c0.3,13.4,0.1,26.8,0.1,40.2
		c0,5.8,0.1,11.6,1.5,17.3c0.1,0.2,0.1,0.5,0.1,0.7c0.4,1.3,0.8,2.6,1.3,3.9c-1.4,0.4-2.9,0.8-4.3,1.2c-5.2,1.2-10.4,2.3-15.5,3.7
		c-1.8,0.5-2.4-0.1-2.9-1.6C386.6,233.1,385.9,231.3,385.1,229.2z M382.8,195.1c-5.4,4.1-11.3,6.3-16.4,9.8
		c-4.8,3.3-6.7,8.1-6.2,13.8c0.4,4.6,3.4,7.2,7.9,7.1c6.4-0.2,12.3-5.4,14-12.5C383.4,207.5,382.5,201.6,382.8,195.1z"/>
	<path class="st2" d="M204.2,234.8c-0.1-6.7,0.6-15,2.8-23.1c4.7-17.1,16-27.1,33.1-30.8c5.4-1.2,10.8-1.9,16.3-0.8
		c10.2,2,16.8,9.2,18.8,20.4c1.3,7.2,0.8,14.4,0.9,21.6c0,1.4-0.9,1.5-1.9,1.8c-11.2,2.6-22.5,5.3-33.7,7.9
		c-3.5,0.8-6.9,1.7-10.4,2.4c-1,0.2-1.5,0.5-1.5,1.6c0,4.5,0.1,9,1.6,13.3c1.8,5.4,5.2,7.3,10.7,6.2c7.1-1.4,11-5.6,11.2-13.1
		c0.1-3.1,1.2-4,4-4.6c5.4-1.1,10.7-2.5,16-3.8c1.8-0.5,2.7-0.5,2.6,1.9c-0.1,15.8-7.1,27.2-21.4,34c-8,3.8-16.4,5.9-25.3,5.6
		c-9.9-0.3-16.6-5.1-20.3-14.2C204.5,253.2,204.1,244.8,204.2,234.8z M228.8,219.6c7.8-1.8,15.3-3.6,22.8-5.4
		c0.7-0.2,1.1-0.5,1.2-1.4c0-3.7,0.1-7.5-1.3-11c-1.4-3.5-4-5.2-7.8-4.9c-5.3,0.4-9.3,2.8-11.8,7.6
		C229.5,209.1,228.8,214.1,228.8,219.6z"/>
	<path class="st2" d="M95.3,290.8c-9.3-6.1-13.2-6.7-24.3-4.4c-0.5-0.8-0.2-1.6-0.2-2.4c0-19.5,0-39-0.1-58.4c0-1.9,0.5-2.7,2.4-3.2
		c6.3-1.3,12.5-2.8,18.7-4.4c2.1-0.5,2.2,0.2,2.2,1.8c-0.1,2.2,0,4.5,0,6.9c1-0.3,1.1-1.2,1.6-1.8c6.4-9.7,15.5-14.9,26.9-16
		c10.4-1,16.9,4.6,18.4,15.2c0.4,2.7,0.5,5.5,0.5,8.2c0,20.1,0,40.1,0,60.2c0,1.9-0.5,2.7-2.4,3.2c-6.7,1.4-13.3,2.9-19.9,4.6
		c-2,0.5-2.3,0-2.3-1.9c0.1-19,0-38,0-56.9c0-2.2-0.1-4.3-0.8-6.4c-1.2-3.6-4-5.2-7.7-4.7c-4.1,0.6-7.2,2.9-9.4,6.3
		c-2.6,4-3.6,8.5-3.6,13.3c0,12.7,0,25.3,0,38C95.3,288.9,95.3,289.7,95.3,290.8z"/>
	<path class="st2" d="M442.5,178.8c0,6-0.4,12,0.9,17.9c1.3,5.5,3.4,8,7.4,8.5c4.7,0.6,10-2.1,12.2-6.2c2-3.9,2.2-8.2,2-12.4
		c-0.1-2.1,0.6-2.8,2.6-3.3c6.4-1.4,12.8-3,19.2-4.5c0.8-0.2,1.8-0.8,1.9,0.9c0.2,13.2-2.5,25.3-13.3,34.1
		c-10.7,8.7-23.3,12.2-37,11.1c-7-0.6-12.1-4.3-15.4-10.5c-2.9-5.4-4-11.2-4.7-17.2c-1.2-10.7-1.5-21.4,0.4-32.1
		c3.6-19.5,15.8-30.4,34.6-34.6c4.9-1.1,9.8-1.8,14.8-1.6c11,0.4,18,6.5,19.7,17.4c0.5,3,0.5,6,0.6,9c0,1.4-0.5,1.9-1.7,2.2
		c-6.6,1.5-13.3,3-19.9,4.7c-1.8,0.5-1.9-0.2-1.9-1.6c0-2.7,0.1-5.5-0.6-8.2c-1.2-4.8-4-6.5-8.9-5.5c-5.2,1-8.6,4.1-10.6,8.9
		c-1.6,3.8-2.3,7.8-2.5,11.9C442.4,171.3,442.5,175,442.5,178.8z"/>
	<path class="st2" d="M31,249.7c0-22.8,0-45.6-0.1-68.4c0-1.9,0.7-2.5,2.4-2.9c7.1-1.6,14.2-3.3,21.3-5c1.9-0.5,2.3-0.2,2.3,1.8
		c-0.1,17.3,0,34.6,0,51.9c0,28.4,0,56.8,0,85.2c0,1.9-0.5,2.7-2.4,3.1c-7.1,1.5-14.1,3.2-21.1,5c-2.1,0.5-2.5,0.1-2.5-1.9
		c0.1-20.9,0-41.8,0-62.7C31,253.7,31,251.7,31,249.7z"/>
	<path class="st2" d="M189.4,283.7c-8.4,2-16.6,4-24.8,5.9c-1.5,0.4-1.7-0.8-2-1.6c-1.8-5.1-2.5-10.3-2.7-15.7
		c-0.6-16.3-0.2-32.6-0.3-48.9c0-3.1,0-3.1-3-2.4c-2.3,0.6-4.7,1.2-7,1.7c-1,0.2-1.9,0.4-1.8-1.3c0.1-5,0.1-10,0-15
		c0-1.3,0.5-1.7,1.7-1.9c2.4-0.5,4.8-1.4,7.3-1.7c2.6-0.3,3.1-1.5,3-3.9c-0.2-4.9,0-9.8-0.1-14.7c0-1.5,0.5-2,1.9-2.3
		c6.9-1.6,13.8-3.2,20.6-4.9c1.7-0.4,2.2-0.1,2.1,1.7c-0.1,5,0,10,0,15c0,0.8-0.2,1.7,0.3,2.5c5.1-1.2,10.2-2.3,15.2-3.6
		c1.6-0.4,1.8,0,1.8,1.4c-0.1,4.8-0.1,9.7,0,14.5c0,1.5-0.7,2-2,2.2c-4.5,1-9,2.2-13.6,3.2c-1.4,0.3-1.8,0.8-1.8,2.3
		c0.1,16.2,0,32.4,0.2,48.7C184.5,271.5,185.4,277.9,189.4,283.7z"/>
	<path class="st2" d="M308.2,177.5c2.7-4.2,5.3-8.2,8.9-11.4c4.3-3.9,9.2-6.5,15.2-6.7c1.6-0.1,2.2,0.4,2.2,2.1
		c-0.1,6.2-0.1,12.5,0,18.7c0,1.5-0.4,2.1-2,2.1c-3.1,0.1-6.1,0.9-9,1.9c-8.9,3.1-13.5,9.7-13.7,18.8c-0.4,16.5-0.3,33-0.2,49.4
		c0,2.5-0.8,3.3-3,3.7c-6.4,1.4-12.8,2.9-19.2,4.4c-1.9,0.5-2.3,0-2.3-1.9c0.1-27.9,0-55.8,0-83.6c0-1.8,0.4-2.6,2.3-3
		c6.3-1.3,12.5-2.8,18.7-4.4c2.1-0.5,2.2,0.2,2.2,1.8C308.1,172.1,308.2,174.8,308.2,177.5z"/>
	<path class="st2" d="M57,367c0,3.6-0.1,7.2,0,10.7c0.1,1.5-0.5,2-1.9,2.3c-5.6,1.2-11.1,2.7-16.7,3.8c-5.6,1.1-10.6-0.3-14.3-4.8
		c-3.6-4.4-4-9.3-2.1-14.5c0.6-1.6,1.6-2.5,3.3-2.9c9.8-2.2,19.6-4.5,29.3-6.9c1.9-0.5,2.4-0.2,2.3,1.8C56.8,360,57,363.5,57,367z"
		/>
	<path class="st2" d="M57,386.9c0,8.1,0,16,0,24c0,1.2-0.7,1.4-1.5,1.5c-5.8,1.4-11.6,2.9-17.5,4c-5.6,1.1-10.6-0.6-14.2-5.2
		c-3.4-4.5-3.8-9.4-1.6-14.6c0.4-1.1,1-2,2.4-2.3c10.4-2.4,20.8-4.9,31.3-7.3C56.1,387,56.4,387,57,386.9z"/>
	<path class="st2" d="M57,322c0,8,0,16,0,23.9c0,1.2-0.7,1.4-1.5,1.5c-5.9,1.4-11.8,2.9-17.7,4c-5.7,1.1-10.6-0.8-14.1-5.5
		c-3.3-4.4-3.6-9.3-1.5-14.4c0.4-1.1,1-1.9,2.4-2.3c10.5-2.4,21-4.9,31.5-7.4C56.3,322,56.5,322,57,322z"/>
	<path class="st2" d="M488.6,103.9c0,8.4-6.9,15.1-15.4,15c-8.3-0.1-15-6.9-14.9-15.3c0.1-8.4,6.8-15.1,15.1-15.1
		C481.9,88.6,488.7,95.5,488.6,103.9z M473.5,117c7.3,0,13.2-5.7,13.3-13c0.1-7.3-5.9-13.4-13.2-13.4c-7.3,0-13.3,6-13.2,13.4
		C460.3,111.2,466.1,117,473.5,117z"/>
	<path class="st1" d="M382.8,195.1c-0.3,6.5,0.6,12.4-0.7,18.2c-1.7,7.2-7.6,12.4-14,12.5c-4.6,0.1-7.5-2.5-7.9-7.1
		c-0.5-5.8,1.4-10.5,6.2-13.8C371.5,201.4,377.4,199.3,382.8,195.1z"/>
	<path class="st1" d="M228.8,219.6c0.1-5.5,0.7-10.5,3.1-15.1c2.5-4.8,6.5-7.2,11.8-7.6c3.8-0.3,6.4,1.4,7.8,4.9
		c1.4,3.6,1.3,7.3,1.3,11c0,0.8-0.4,1.2-1.2,1.4C244,216,236.5,217.8,228.8,219.6z"/>
	<path class="st1" d="M473.5,117c-7.3,0-13.1-5.8-13.2-13.1c0-7.4,5.9-13.4,13.2-13.4c7.3,0,13.3,6.1,13.2,13.4
		C486.7,111.3,480.8,117,473.5,117z M479.6,113.1c-1.6-2.9,1.1-6.8-2.8-9c0.3-0.3,0.6-0.5,0.8-0.7c1.8-1.7,1.9-3.9,1.2-6
		c-0.7-2.1-2.5-2.7-4.6-2.6c-1.5,0.1-3,0.1-4.5,0c-1.2-0.1-1.8,0.3-1.7,1.6c0.1,5.1,0,10.1,0,15.2c0,1,0.1,1.7,1.4,1.7
		c1.5,0,1.6-0.7,1.6-1.8c-0.1-1.6,0-3.2,0-4.7c0-0.5-0.2-1.1,0.6-1.5c2-0.9,4.3,0.5,4.5,2.7c0.1,0.9,0.1,1.8,0.1,2.7
		C476.1,112.9,477,113.8,479.6,113.1z"/>
	<path class="st2" d="M479.6,113.1c-2.6,0.8-3.5-0.2-3.5-2.3c0-0.9,0-1.8-0.1-2.7c-0.1-2.2-2.4-3.6-4.5-2.7
		c-0.8,0.3-0.6,0.9-0.6,1.5c0,1.6-0.1,3.2,0,4.7c0,1.1-0.1,1.9-1.6,1.8c-1.4,0-1.4-0.7-1.4-1.7c0-5.1,0.1-10.1,0-15.2
		c0-1.4,0.5-1.7,1.7-1.6c1.5,0.1,3,0.1,4.5,0c2.1-0.1,3.9,0.5,4.6,2.6c0.7,2.1,0.6,4.3-1.2,6c-0.2,0.2-0.5,0.4-0.8,0.7
		C480.7,106.2,478,110.2,479.6,113.1z M471,100c0.3,1.3-0.8,3.2,1.9,3c2.1-0.1,3.4-0.8,3.4-3c0-2.1-1.2-3-3.3-3.1
		C470.1,96.7,471.2,98.8,471,100z"/>
	<path class="st1" d="M471,100c0.3-1.2-0.9-3.3,2-3.1c2.1,0.1,3.3,1,3.3,3.1c0,2.2-1.3,2.9-3.4,3C470.1,103.2,471.2,101.3,471,100z"
		/>
</g>
</svg>
