<svg width="120" height="96" fill="none" xmlns="http://www.w3.org/2000/svg"><path d="M23.35 93.26v-6a3.56 3.56 0 00-3.76-3.8 3.7 3.7 0 00-3.36 1.7 3.51 3.51 0 00-3.16-1.7 3.16 3.16 0 00-2.8 1.42V83.7H8.19v9.56h2.1V88a2.242 2.242 0 012.34-2.54c1.38 0 2.08.9 2.08 2.52v5.32h2.1V88a2.251 2.251 0 012.34-2.54c1.42 0 2.1.9 2.1 2.52v5.32l2.1-.04zm31.07-9.56H51v-2.9h-2.1v2.9H47v1.9h1.94V90c0 2.22.86 3.54 3.32 3.54a4.88 4.88 0 002.6-.74l-.6-1.78a3.84 3.84 0 01-1.84.54c-1 0-1.38-.64-1.38-1.6V85.6h3.4l-.02-1.9zm17.74-.24a2.821 2.821 0 00-2.52 1.4V83.7h-2.06v9.56h2.08V87.9c0-1.58.68-2.46 2-2.46.445-.006.887.075 1.3.24l.64-2a4.447 4.447 0 00-1.48-.26l.04.04zm-26.82 1a7.15 7.15 0 00-3.9-1c-2.42 0-4 1.16-4 3.06 0 1.56 1.16 2.52 3.3 2.82l1 .14c1.14.16 1.68.46 1.68 1 0 .74-.76 1.16-2.18 1.16a5.09 5.09 0 01-3.18-1l-1 1.62a6.9 6.9 0 004.14 1.24c2.76 0 4.36-1.3 4.36-3.12s-1.26-2.56-3.34-2.86l-1-.14c-.9-.12-1.62-.3-1.62-.94 0-.64.68-1.12 1.82-1.12a6.16 6.16 0 013 .82l.92-1.68zm55.71-1a2.822 2.822 0 00-2.52 1.4V83.7h-2.06v9.56h2.08V87.9c0-1.58.68-2.46 2-2.46.445-.006.887.075 1.3.24l.64-2a4.45 4.45 0 00-1.48-.26l.04.04zm-26.8 5a4.83 4.83 0 005.1 5 5 5 0 003.44-1.14l-1-1.68a4.2 4.2 0 01-2.5.86 3.07 3.07 0 010-6.12 4.2 4.2 0 012.5.86l1-1.68a5 5 0 00-3.44-1.14 4.828 4.828 0 00-5.1 5v.04zm19.48 0V83.7h-2.08v1.16a3.629 3.629 0 00-3-1.4 5 5 0 000 10 3.63 3.63 0 003-1.4v1.16h2.08v-4.76zm-7.74 0a2.89 2.89 0 112.9 3.06 2.87 2.87 0 01-2.9-3.06zm-25.1-5a5 5 0 10.14 10 5.81 5.81 0 003.97-1.3l-1-1.54a4.55 4.55 0 01-2.78 1 2.65 2.65 0 01-2.86-2.34h7.1v-.8c0-3-1.86-5-4.54-5l-.03-.02zm0 1.86a2.37 2.37 0 012.42 2.32h-5a2.46 2.46 0 012.54-2.32h.04zM113 88.48v-8.62h-2v5a3.633 3.633 0 00-3-1.4 5.002 5.002 0 00-3.536 8.536A5.002 5.002 0 00108 93.46a3.633 3.633 0 003-1.4v1.16h2v-4.74zm3.47 3.39a1 1 0 01.38.07c.115.047.22.115.31.2a.924.924 0 010 1.34.999.999 0 01-.31.2.94.94 0 01-.38.08.997.997 0 01-.9-.58.941.941 0 010-.74.998.998 0 01.21-.3.999.999 0 01.31-.2.999.999 0 01.41-.07h-.03zm0 1.69a.71.71 0 00.714-.72.74.74 0 00-.194-.5.72.72 0 00-.81-.16.732.732 0 00-.24.16.741.741 0 000 1c.069.069.15.123.24.16a.74.74 0 00.32.06h-.03zm.06-1.19a.401.401 0 01.26.08.239.239 0 01.07.094.243.243 0 01.02.116.248.248 0 01-.016.097.247.247 0 01-.054.083.35.35 0 01-.21.09l.29.33h-.23l-.27-.33h-.09v.33h-.19v-.88l.42-.01zm-.22.17v.24h.22a.21.21 0 00.12 0 .101.101 0 00.011-.045.1.1 0 00-.011-.045.101.101 0 00.011-.045.1.1 0 00-.011-.045.21.21 0 00-.12 0l-.22-.06zm-11-4.06a2.886 2.886 0 011.894-2.545 2.892 2.892 0 013.649 3.85 2.891 2.891 0 01-2.643 1.755 2.866 2.866 0 01-2.736-1.896 2.862 2.862 0 01-.164-1.164zm-70.23 0V83.7H33v1.16a3.629 3.629 0 00-3-1.4 5 5 0 000 10 3.63 3.63 0 003-1.4v1.16h2.08v-4.74zm-7.74 0a2.89 2.89 0 112.9 3.06 2.87 2.87 0 01-2.92-3.06h.02z" fill="#fff"/><path d="M76.15 10.85h-31.5v56.61h31.5V10.85z" fill="#FF5F00"/><path d="M46.65 39.16A35.94 35.94 0 0160.4 10.85a36 36 0 100 56.61 35.94 35.94 0 01-13.75-28.3z" fill="#EB001B"/><path d="M118.65 39.16a36 36 0 01-58.25 28.3 36 36 0 000-56.61 36 36 0 0158.25 28.3v.01zM115.21 61.46V60.3h.47v-.24h-1.19v.24h.51v1.16h.21zm2.31 0v-1.4h-.36l-.42 1-.42-1H116v1.4h.26v-1.05l.39.91h.27l.39-.91v1.06l.21-.01z" fill="#F79E1B"/></svg>