<svg width="512" height="190" xmlns="http://www.w3.org/2000/svg" xml:space="preserve" version="1.0">
 <defs>
  <linearGradient y2="0.49989" x2="0.99957" y1="0.49989" x1="0" id="SVGID_1_">
   <stop stop-color="#8BC63F" offset="0"/>
	  <stop stop-color="#059344" offset="1"/>
  </linearGradient>
	 <linearGradient y2="0.49979" x2="1.00097" y1="0.49979" x1="0.00091" id="SVGID_00000041271673135912289320000003759921610101187247_">
   <stop stop-color="#8BC63F" offset="0"/>
		 <stop stop-color="#059344" offset="1"/>
  </linearGradient>
	 <linearGradient y2="0.95864" x2="0.50837" y1="0.04888" x1="0.50837" id="SVGID_00000106832997137403810470000011321532359689696678_">
   <stop stop-color="#8BC63F" offset="0"/>
		 <stop stop-color="#059344" offset="1"/>
  </linearGradient>
 </defs>
	<g>
  <title>Layer 1</title>
		<g id="svg_1">
   <path id="svg_2" fill="#373737" d="m228.1,8.6c4.5,1.4 9.1,2.2 13.4,4.4c3.9,2 4.2,3.2 0.9,6.1c-2.8,2.5 -6.1,2.9 -9.5,1.7c-3.7,-1.2 -7.4,-1.8 -11.3,-1.5c-4.6,0.4 -8.3,3 -9.2,6.6c-1,3.8 0.7,7.2 4.9,9.8c3.2,2 6.6,3.3 10.1,4.7c2.1,0.8 4.2,1.6 6.1,2.6c8.9,4.4 13,12 11.8,21.6c-1.1,8.8 -7.4,15.7 -16.5,17.6c-10.9,2.3 -21.1,-0.2 -30.6,-5.7c-1.6,-0.9 -1.6,-1.9 -0.7,-3.4c2.3,-4 6.9,-5.5 11.6,-3.3c4.9,2.3 9.8,3.5 15.1,2.2c6.9,-1.6 10.4,-7.1 8.4,-12.8c-1.1,-3.1 -3.6,-5 -6.4,-6.4c-3.1,-1.6 -6.4,-2.8 -9.6,-4.3c-2.3,-1.1 -4.7,-2.1 -6.9,-3.3c-7.7,-4.4 -11,-11 -9.6,-19.7c1.3,-8.3 6.7,-13.2 14.4,-15.8c1.1,-0.4 2.5,-0.2 3.4,-1.2c3.4,0.1 6.8,0.1 10.2,0.1z" class="st0"/>
			<g id="svg_3">
    <path id="svg_4" fill="url(#SVGID_1_)" d="m0,87c1.6,-2.5 1.2,-5.4 1.9,-8.1c7.9,-31 27.2,-51.1 57.9,-60.2c2.4,-0.7 3,0.2 3.3,2.1c1.3,9.7 -2.2,15.9 -10.7,20.8c-7.6,4.4 -15.1,9 -20.6,15.9c-7.4,9.3 -12.1,19.7 -13.3,31.6c-0.2,1.6 -1.8,3.7 0,4.6c1.3,0.6 2.4,-1.7 3.5,-2.7c16,-15.9 31.8,-31.9 47.9,-47.7c13.6,-13.4 29.8,-17.8 48.3,-13c8.8,2.3 16.4,6.9 22.7,13.6c1.7,1.8 1.9,3.2 0,5c-5.8,5.4 -11.7,10.7 -17,16.5c-3.7,4.1 -7.7,7.7 -11.5,11.7c-5.7,6.1 -11.7,12.1 -17.9,17.8c-6.6,6.2 -12.9,12.7 -19.3,19c-6.2,6.1 -12.2,12.4 -18.5,18.5c-7.4,7.3 -14.4,15.1 -22.3,21.9c-0.6,0.5 -1,1.3 -1.5,2c-1.4,1.8 -2.9,1.8 -4.6,0.3c-2.9,-2.6 -5.7,-5.4 -8.4,-8.3c-1.9,-2 -1.7,-3.5 0.2,-5.4c9.8,-9.6 19.4,-19.3 29.1,-29c21.4,-21.3 42.7,-42.7 64.1,-63.9c2.1,-2.1 1.8,-3 -0.7,-4.1c-7.5,-3.2 -14.7,-2.9 -21.2,2.2c-4.2,3.3 -7.9,7.3 -11.6,11.1c-6.2,6.3 -12.4,12.7 -18.9,18.8c-11.5,10.8 -22.1,22.7 -33.8,33.3c-5.4,5 -10.3,10.5 -15.5,15.8c-3.1,3.1 -4,2.9 -5.7,-1.2c-2.6,-6.3 -4.3,-12.9 -5.2,-19.6c-0.1,-0.6 0.1,-1.3 -0.7,-1.6c0,-5.8 0,-11.8 0,-17.7z" class="st1"/>
				<path id="svg_5" fill="url(#SVGID_00000041271673135912289320000003759921610101187247_)" d="m141.7,98.3c-4.2,4 -8.2,7.2 -11.6,11.1c-3.7,4.2 -8,7.8 -11.8,11.9c-3.6,3.9 -7.4,7.5 -11.1,11.1c-8,7.8 -16,15.7 -24,23.5c-0.4,0.4 -1.1,0.9 -0.7,1.6c0.4,0.6 1.1,0.4 1.7,0.4c7.4,-0.2 14.2,-2.6 20.4,-6.4c3.9,-2.4 7.8,-4.7 11.6,-7.3c5.5,-3.9 18.2,-3.3 23.3,1.3c1.7,1.5 1.7,2.4 0.2,4c-15.2,15.9 -33.4,25.2 -55.6,26.2c-11.8,0.5 -23.1,-1.3 -34,-5.7c-4,-1.6 -4.2,-2.5 -1.3,-5.5c33.2,-33.2 66.4,-66.4 99.7,-99.6c3.3,-3.3 4.3,-3.1 6,1.1c7.3,18 7.2,36.3 1.8,54.8c-0.6,2.1 -1.6,2.2 -3.5,1.5c-8.2,-3 -12.9,-11.4 -11.7,-21.1c0.3,-0.7 0.4,-1.5 0.6,-2.9z"/>
   </g>
			<path id="svg_6" fill="#373737" d="m196.7,143.4c0,-17.2 11.5,-32 28.3,-36.5c16,-4.3 33.6,3 42,17.4c1.1,1.8 1.5,3.1 -1.2,3.7c-1,0.2 -1.9,0.9 -2.8,1.4c-3.6,1.9 -5.7,1.5 -8.3,-1.7c-4.7,-5.7 -10.6,-9 -17.9,-9.8c-13.1,-1.5 -26.3,8.9 -27.8,22c-2,18.4 13.8,32.4 32,28.2c4.2,-1 6.1,0 7.7,3.9c2.3,5.6 2.3,5.6 -3.6,7.3c-24.2,7.3 -48.4,-10.7 -48.4,-35.9z" class="st0"/>
			<path id="svg_7" fill="#373737" d="m263.1,46.1c10.3,-11.4 23.6,-11.5 29.3,-0.4c3.5,-4.2 7.6,-7.4 13.3,-8c9.1,-1 15.5,4.6 15.6,13.7c0,9.2 -0.1,18.5 0.1,27.7c0,2.3 -0.7,3.1 -3.1,3.2c-8.4,0.1 -8.4,0.2 -8.4,-8.2c0,-6.3 0,-12.5 0,-18.8c0,-2.9 -0.3,-5.9 -3.5,-7.2c-3.4,-1.4 -6.3,-0.2 -8.8,2.1c-4,3.7 -5.1,8.6 -5.2,13.9c-0.1,5.2 -0.1,10.4 0,15.6c0,1.9 -0.7,2.5 -2.6,2.6c-8.8,0.3 -8.8,0.4 -8.8,-8.2c0,-5.8 0,-11.7 0,-17.5c0,-1.7 -0.2,-3.4 -0.7,-5c-0.9,-3.2 -3.9,-4.8 -7.3,-3.8c-5.8,1.6 -8.1,6.2 -9.1,11.5c-1.2,6.4 -0.5,12.9 -0.5,19.4c0,2.7 -0.5,3.7 -3.5,3.7c-7.9,-0.1 -7.9,0 -7.9,-7.8c0,-8.5 0,-17 0,-25.5c0,-4.8 2.9,-8.3 7.2,-9.3c2.2,-0.5 3.5,-0.1 3.4,2.5c0,1.1 0.3,2.2 0.5,3.8z" class="st0"/>
			<path id="svg_8" fill="#373737" d="m362.4,143.4c1.3,-1.4 2.1,-2.3 3,-3.1c5.4,-5 11.7,-6.3 18.6,-4.5c5.4,1.4 8.8,5.4 8.9,11.1c0.3,10.4 0.2,20.8 0.3,31.2c0,1.5 -0.5,2.2 -2,2c-0.1,0 -0.2,0 -0.3,0c-3,-0.1 -6.7,1.2 -8.7,-0.5c-1.8,-1.6 -0.5,-5.4 -0.5,-8.3c-0.1,-6.1 0,-12.1 0,-18.2c0,-3.1 -0.4,-6.1 -3.6,-7.6c-3.4,-1.6 -6.7,-0.9 -9.6,1.3c-3.9,3.1 -5.6,7.4 -5.7,12.3c-0.1,6.1 -0.1,12.1 0,18.2c0.1,2.3 -0.7,3 -2.9,2.8c-2.7,-0.2 -6.3,0.8 -8,-0.5c-1.8,-1.4 -0.6,-5.2 -0.6,-7.9c-0.1,-19.6 0,-39.3 0,-58.9c0,-5.6 2.9,-9.4 8,-10.9c2.4,-0.7 3.2,-0.3 3.1,2.4c-0.1,12.2 -0.1,24.4 -0.1,36.6c0.1,0.6 0.1,1.2 0.1,2.5z" class="st0"/>
			<path id="svg_9" fill="#373737" d="m364.1,77.5c-0.9,-0.2 -1.3,0.6 -1.8,1.1c-7.2,6 -15.1,6.3 -23.3,2.7c-8.1,-3.6 -11.1,-10.6 -11.2,-19.1c-0.2,-13.1 6.6,-22.1 18.2,-24.4c4.2,-0.9 8.3,-0.3 12,1.9c2.3,1.3 4,1.1 5.7,-0.6c3.4,-3.2 7.5,-1.2 11.2,-1.5c1.1,-0.1 1.1,1.4 1.1,2.3c0,13.4 0,26.7 0,40.1c0,2 -0.9,2.7 -2.7,2.5c-1,-0.1 -1.9,0 -2.9,0c-5.4,-0.1 -5.4,-0.1 -6.3,-5zm-11.8,-30.1c-7.3,-0.1 -12.9,5.3 -13.1,12.6c-0.2,7.7 5.6,14 12.9,14.1c7.4,0.1 13.2,-5.7 13.2,-13.3c0.2,-7.7 -5.3,-13.3 -13,-13.4z" class="st0"/>
			<path id="svg_10" fill="#373737" d="m292.5,174.2c-6.4,6.6 -13.6,8.4 -21.9,6.2c-9.8,-2.6 -15.2,-10.7 -14.9,-22.4c0.2,-12.2 8.5,-21.6 20.2,-22.8c3.6,-0.4 7.1,0.2 10.1,2.1c2.2,1.4 4,1.1 5.7,-0.5c3.4,-3.2 7.5,-1.4 11.2,-1.5c1.2,0 1.2,1.3 1.2,2.3c0,13.4 0,26.7 0,40.1c0,1.7 -0.6,2.6 -2.4,2.5c-1.2,-0.1 -2.3,0 -3.5,0c-5.4,-0.1 -5.4,-0.1 -5.7,-6zm0.8,-15.8c0,-7.7 -5.6,-13.4 -13.1,-13.4c-7.2,0 -13,5.8 -13,13.2c0,7.4 5.9,13.6 13.1,13.6c7.6,0 13.1,-5.6 13,-13.4z" class="st0"/>
			<path id="svg_11" fill="#373737" d="m467.4,159.9c1.8,-4.3 3.5,-8 5,-11.9c1,-2.6 1,-5.5 -0.1,-8.1c-0.8,-2.2 0,-2.5 1.9,-2.5c4.8,0 7.8,1.9 9.8,6.6c2.3,5.3 4.6,10.6 7.2,16.6c2.9,-7.4 5.6,-14 8.1,-20.6c0.7,-1.9 1.6,-2.7 3.7,-2.5c1.9,0.2 3.8,0.1 5.7,0c2.5,-0.1 2.6,0.8 1.7,2.8c-4.9,11.2 -9.8,22.5 -14.6,33.8c-0.8,1.9 -1.7,3.9 -2.5,5.8c-0.3,0.7 -0.4,1.6 -1.3,1.6c-0.9,0 -1.1,-0.9 -1.4,-1.6c-3.6,-7.4 -7.1,-14.9 -10.7,-22.4c-0.4,-0.8 -0.5,-2.2 -1.5,-2.2c-1.3,0 -1.3,1.5 -1.7,2.4c-3.2,7.3 -6.3,14.6 -9.5,21.8c-0.3,0.7 -0.4,1.9 -1.4,1.9c-1.1,0 -1.1,-1.2 -1.4,-1.9c-4.7,-10.7 -9.3,-21.3 -14,-32c-1.1,-2.6 -2.4,-5.2 -4,-7.5c-0.4,-0.6 -1.2,-1.2 -0.8,-1.9c0.4,-0.9 1.5,-0.6 2.3,-0.6c1.1,0 2.1,0.1 3.2,0c4.6,-0.5 7.3,1.6 8.9,5.9c2.2,5.3 4.8,10.5 7.4,16.5z" class="st0"/>
			<path id="svg_12" fill="#373737" d="m413.6,166.2c3.4,5.1 10.2,6.8 16.3,3.7c2.8,-1.5 4.1,-1.1 5.7,1.6c3.2,5.7 3.3,5.6 -2.8,7.9c-6.2,2.4 -12.5,2.4 -18.7,0.4c-8.8,-2.9 -14.2,-10.6 -14.5,-20.7c-0.3,-9.5 5.6,-18.2 14.7,-21.8c13.5,-5.3 26.6,0.8 30.8,14.3c0.8,2.6 0.3,3.8 -2.4,4.7c-9.6,3.1 -19.1,6.4 -28.6,9.6c-0.1,0 -0.3,0.2 -0.5,0.3zm-2.7,-9.1c-0.4,1.9 0.4,2.2 2.3,1.5c5.1,-1.9 10.2,-3.6 15.2,-5.5c1.5,-0.6 4,-0.4 4.2,-2.1c0.2,-1.8 -1.7,-3.2 -3.2,-4.5c-1.1,-0.9 -2.3,-1.4 -3.7,-1.7c-8,-1.5 -14.6,3.9 -14.8,12.3z" class="st0"/>
			<path id="svg_13" fill="#373737" d="m327.3,181c-5.7,0 -10.8,-1.4 -15.1,-4.9c-1.7,-1.3 -2.1,-2.5 -0.4,-4.1c0.2,-0.1 0.2,-0.3 0.4,-0.5c2.7,-3.7 2.7,-3.6 6.5,-1.1c2.9,1.9 6.1,3 9.7,2.3c2.2,-0.5 4.2,-1.3 4.5,-3.8c0.4,-2.5 -1.2,-4 -3.3,-4.8c-2.8,-1.1 -5.8,-2 -8.7,-3.1c-7.4,-3.1 -10.5,-10.2 -7.6,-17.1c1.6,-3.8 4.5,-6.5 8.5,-7.6c6.7,-1.9 13.2,-1.2 19.4,2.2c1.7,1 2.4,2 0.9,3.7c-0.5,0.6 -1,1.4 -1.4,2.1c-1,2.4 -2.2,2.6 -4.3,1c-2.2,-1.7 -5,-2.4 -7.9,-2c-2.2,0.3 -4.2,1.2 -4.6,3.7c-0.4,2.4 1,3.8 3,4.7c1.9,0.8 4,1.5 6,2.2c8.5,2.9 12.1,7.2 11.4,13.8c-0.7,7.5 -6.2,12.4 -14.7,13.3c-0.9,-0.1 -1.7,-0.1 -2.3,0z" class="st0"/>
			<path id="svg_14" fill="#373737" d="m424.7,64.4c0,-5 -0.1,-10 0,-15c0.1,-2.3 -0.7,-3.3 -3.1,-3.2c-1.4,0.1 -3.6,0.9 -4.1,-0.7c-0.7,-2.4 -0.6,-5.1 0,-7.5c0.3,-1.2 1.9,-0.6 2.9,-0.7c4.3,-0.1 4.3,-0.1 4.3,-4.4c0,-3.3 0.1,-6.6 0,-9.9c0,-1.7 0.6,-2.2 2.3,-2c5.1,0.6 8.8,4.7 9,10.2c0.2,6 0.2,6 6.1,6c1,0 1.9,0 2.9,0c1.5,-0.1 2,0.6 2.1,2.1c0.5,6.9 0.6,6.9 -6.5,6.9c-4.6,0 -4.6,0 -4.6,4.7c0,9.4 -0.1,18.9 0,28.3c0,2.3 -0.5,3.2 -3,3.1c-8.3,0 -8.3,0.1 -8.3,-8.2c0,-3.1 0,-6.4 0,-9.7z" class="st0"/>
			<path id="svg_15" fill="#373737" d="m395.5,48c3.7,-5.4 8.2,-8.5 13.7,-10.4c2.1,-0.7 3.1,-0.3 2.7,2.1c-0.1,0.6 0,1.3 -0.1,1.9c-0.1,2 0.2,4.2 -0.5,6c-0.9,2.2 -3.6,0.8 -5.4,1.5c-5.4,2.1 -8.8,5.7 -9.9,11.4c-1.2,6.2 -0.6,12.5 -0.6,18.7c0,2.3 -0.4,3.3 -3.1,3.3c-8.4,-0.1 -8.4,0 -8.4,-8.3c0,-11.1 0.1,-22.3 0,-33.4c0,-2.5 0.4,-3.6 3.3,-3.5c7.1,0.2 7.1,0 7.7,7c0.2,1 0.4,2 0.6,3.7z" class="st0"/>
			<path id="svg_16" fill="url(#SVGID_00000106832997137403810470000011321532359689696678_)" d="m335.2,31c-4.2,-0.9 -6.8,-3.3 -7.7,-7.5c-0.1,-0.6 -0.3,-1.4 -1.1,-1.4c-1,-0.1 -1.1,0.8 -1.3,1.5c-1,4 -3.4,6.5 -7.5,7.3c-0.7,0.2 -1.6,0.3 -1.5,1.3c0.1,0.9 1,1 1.7,1.2c3.9,0.9 6.3,3.4 7.2,7.3c0.2,0.7 0.2,1.6 1.1,1.7c1.1,0.1 1.3,-0.9 1.5,-1.7c1,-4 3.2,-6.6 7.4,-7.3c0.7,-0.1 1.5,-0.3 1.5,-1.3c0,-0.8 -0.7,-1 -1.3,-1.1z"/>
  </g>
 </g>
</svg>