<svg width="56" height="36" xmlns="http://www.w3.org/2000/svg"><g fill="none" fill-rule="evenodd"><path fill="#FFF" d="M55.229 35.877H.158V.486h55.07z"/><path fill="#F7B600" d="M1.074 30.126H54.31v4.83H1.074v-4.83z"/><path fill="#1A1F71" d="M1.074 6.243H54.31V1.414H1.074v4.829z"/><g fill="#1A1F71"><path d="M26.634 10.602L23.966 23.22H20.74l2.667-12.618h3.227zm13.574 8.147l1.7-4.738.975 4.738h-2.675zm3.602 4.47h2.983l-2.606-12.617h-2.753c-.62 0-1.142.365-1.374.925L35.22 23.22h3.388l.672-1.885h4.14l.391 1.885zM35.387 19.1c.014-3.33-4.55-3.514-4.52-5.002.01-.452.436-.933 1.368-1.056.462-.06 1.737-.109 3.182.564l.566-2.677a8.61 8.61 0 0 0-3.018-.557c-3.19 0-5.434 1.714-5.452 4.17-.02 1.817 1.603 2.83 2.824 3.435 1.257.618 1.68 1.015 1.673 1.567-.009.847-1.004 1.222-1.93 1.236-1.622.026-2.563-.444-3.313-.798l-.586 2.766c.755.35 2.146.654 3.587.67 3.391 0 5.609-1.694 5.619-4.318zm-13.364-8.498L16.796 23.22h-3.411l-2.573-10.07c-.156-.619-.292-.847-.766-1.108-.776-.427-2.057-.825-3.183-1.073l.076-.367h5.49c.7 0 1.329.471 1.489 1.286l1.359 7.302 3.356-8.588h3.39zM30.764 26.693h-1.311v1.234h1.466v.372h-1.908v-3.425h1.833v.37h-1.391v1.083h1.31zM31.597 24.691h.5v3.607h-.5zM34.449 26.83c.005-.28-.116-.721-.613-.721-.452 0-.643.411-.678.721h1.29zm-1.296.32c.01.605.387.854.833.854.317 0 .513-.056.674-.127l.08.32c-.156.071-.427.157-.814.157-.748 0-1.195-.503-1.195-1.244 0-.742.432-1.322 1.14-1.322.799 0 1.005.702 1.005 1.154 0 .091-.005.157-.016.208h-1.707zM37.28 28.212a1.69 1.69 0 0 1-.698.142c-.733 0-1.21-.502-1.21-1.255 0-.757.512-1.31 1.306-1.31.26 0 .492.065.612.132l-.1.34a1.073 1.073 0 0 0-.512-.117c-.558 0-.859.422-.859.93 0 .57.362.92.844.92.25 0 .416-.061.542-.117l.075.335zM38.52 25.25v.59h.633v.34h-.633v1.326c0 .305.086.477.332.477.12 0 .19-.01.256-.03l.02.34c-.085.031-.221.061-.392.061a.627.627 0 0 1-.477-.187c-.12-.138-.17-.356-.17-.646V26.18h-.378v-.34h.377v-.457l.432-.132zM39.77 26.607c0-.29-.005-.539-.02-.768h.387l.02.488h.015c.11-.33.381-.539.678-.539.045 0 .08.006.12.01v.422c-.045-.01-.09-.01-.15-.01-.312 0-.533.234-.593.57-.01.06-.015.136-.015.208v1.31h-.442v-1.691zM41.763 27.074c0 .539.301.945.733.945.422 0 .738-.401.738-.955 0-.417-.205-.94-.728-.94-.517 0-.743.488-.743.95m1.924-.025c0 .909-.628 1.305-1.21 1.305-.654 0-1.166-.488-1.166-1.265 0-.818.538-1.3 1.206-1.3.698 0 1.17.513 1.17 1.26M44.364 26.505c0-.26-.005-.462-.02-.666h.391l.026.407h.01a.898.898 0 0 1 .803-.458c.337 0 .859.204.859 1.047v1.463h-.442v-1.417c0-.396-.145-.727-.562-.727-.287 0-.513.209-.593.458a.641.641 0 0 0-.03.208v1.478h-.442v-1.793z"/></g></g></svg>