<?xml version="1.0" encoding="utf-8"?>
<!-- Generator: Adobe Illustrator 25.3.1, SVG Export Plug-In . SVG Version: 6.00 Build 0)  -->
<svg version="1.0" id="Layer_1" xmlns="http://www.w3.org/2000/svg" xmlns:xlink="http://www.w3.org/1999/xlink" x="0px" y="0px"
	 viewBox="0 0 512 188" style="enable-background:new 0 0 512 188;" xml:space="preserve">
<style type="text/css">
	.duck-logo-0{fill:#252A2C;}
	.duck-logo-1{fill:#FF5F6F;}
	.duck-logo-2{fill:#DFE4E8;}
</style>
<g id="Group_2020" transform="translate(-4989.021 4063.064)">
	<path id="Path_1244" class="duck-logo-0" d="M4989-4025.2h49.7c35,0,61.1,20,61.1,55.6s-26,55.7-60.9,55.7H4989L4989-4025.2z
		 M5038.8-3943.3c14.2,0.6,26.2-10.3,26.9-24.5c0-0.6,0-1.2,0-1.8c0-15-8.7-26.2-26.7-26.2h-16.2v52.6H5038.8z"/>
	<path id="Path_1245" class="duck-logo-0" d="M5232.3-3910.8v-65.4h-34.2v64.4c1,9.6-5.9,18.2-15.5,19.2c-1.2,0.1-2.4,0.1-3.7,0
		c-9.6,1.1-18.3-5.8-19.3-15.5c-0.1-1.2-0.1-2.5,0-3.7v-64.4h-34.2v65.6c-0.6,12.8,4.1,25.3,13.1,34.5h80.9
		C5228.3-3885.4,5233-3897.9,5232.3-3910.8z"/>
	<path id="Path_1246" class="duck-logo-1" d="M5198.1-4063.1v15.6c1,9.6-5.9,18.2-15.5,19.2c-1.2,0.1-2.5,0.1-3.7,0
		c-9.6,1.1-18.3-5.8-19.3-15.5c-0.1-1.2-0.1-2.5,0-3.7v-15.6h-34.2v16.8c0,27.5,16,47.7,53.6,47.7c37.6,0,53.4-20.2,53.4-47.9v-16.6
		H5198.1z"/>
	<path id="Path_1247" class="duck-logo-1" d="M5292-3883c-0.8-14.6,10.4-27,25-27.8c0.4,0,0.8,0,1.2,0c10.1,0.1,19.1,6.6,22.4,16.2l29-13.5
		c-6.7-15.4-21.4-32.4-51.4-32.4c-34,0-60.4,23.2-60.4,57.6c0,2.3,0.1,4.6,0.4,6.9h34.6C5292.2-3878.4,5292-3880.7,5292-3883z"/>
	<path id="Path_1248" class="duck-logo-0" d="M5318.2-4046.6c10.1,0.1,19.1,6.6,22.4,16.2l29-13.5c-3.1-7.3-7.7-13.8-13.5-19.1h-77.8
		c-13.3,10.8-20.9,27.2-20.5,44.3c0,34.2,26.4,57.6,60.4,57.6c22.3,1.1,42.8-11.9,51.4-32.5l-29-13.4c-3.2,9.6-12.2,16.1-22.4,16.2
		c-14.6-0.1-26.4-12-26.2-26.7c0-0.4,0-0.8,0-1.2c-0.8-14.6,10.3-27.1,24.9-27.9C5317.3-4046.6,5317.7-4046.6,5318.2-4046.6z"/>
	<path id="Path_1249" class="st0" d="M5434.9-3952.5l-6.2,8.4v30.9H5395v-111.3h33.7v41.7l29.2-41.7h41.2l-42.1,51.7l43.9,59.6H5460
		L5434.9-3952.5z"/>
	<rect id="Rectangle_780" x="5111" y="-4063.1" class="duck-logo-2" width="3.1" height="187"/>
	<rect id="Rectangle_781" x="5243.5" y="-4063.1" class="duck-logo-2" width="3.1" height="187"/>
	<rect id="Rectangle_782" x="5380.8" y="-4063.1" class="duck-logo-2" width="3.1" height="187"/>
</g>
</svg>
